<?xml version="1.0" standalone="no"?>
<!DOCTYPE svg PUBLIC "-//W3C//DTD SVG 20010904//EN"
 "http://www.w3.org/TR/2001/REC-SVG-20010904/DTD/svg10.dtd">
<svg version="1.0" xmlns="http://www.w3.org/2000/svg"
 width="512.000000pt" height="512.000000pt" viewBox="0 0 512.000000 512.000000"
 preserveAspectRatio="xMidYMid meet">
<metadata>
Created by potrace 1.11, written by Peter Selinger 2001-2013
</metadata>
<g transform="translate(0.000000,512.000000) scale(0.100000,-0.100000)"
fill="#000000" stroke="none">
<path d="M420 5113 c-182 -31 -335 -163 -396 -343 -18 -53 -19 -131 -19 -2210
0 -2081 1 -2157 19 -2210 53 -156 170 -273 326 -326 53 -18 131 -19 2210 -19
2081 0 2157 1 2210 19 156 53 273 170 326 326 18 53 19 131 19 2210 0 2081 -1
2157 -19 2210 -52 152 -161 265 -315 324 l-56 21 -2140 1 c-1177 1 -2151 -1
-2165 -3z m3000 -476 c216 -57 379 -145 523 -286 190 -184 256 -322 352 -736
162 -699 251 -956 437 -1268 159 -267 192 -357 192 -522 -1 -116 -19 -191 -74
-310 -136 -292 -463 -568 -925 -779 -742 -339 -1649 -419 -2367 -210 -561 163
-1012 534 -1224 1005 -151 337 -182 734 -84 1089 144 523 549 1004 1208 1434
481 314 918 509 1296 581 185 35 172 34 381 30 164 -2 203 -6 285 -28z"/>
<path d="M2745 4135 c-108 -24 -185 -61 -273 -132 l-43 -35 -52 41 c-29 22
-82 53 -117 70 -69 32 -209 67 -232 59 -15 -6 -52 -179 -40 -189 4 -3 47 -15
96 -27 96 -23 166 -62 216 -118 35 -40 75 -115 84 -160 l7 -30 -74 -12 c-180
-28 -400 -126 -521 -233 l-35 -30 -12 23 c-6 13 -25 40 -41 60 -28 36 -29 40
-19 93 20 108 -21 228 -106 305 -23 22 -46 40 -50 40 -5 -1 -34 -35 -65 -78
l-57 -77 28 -30 c36 -37 51 -67 51 -97 0 -22 -3 -23 -84 -23 -46 0 -87 -3 -91
-6 -3 -4 7 -50 22 -103 26 -96 27 -97 54 -91 73 16 165 -45 200 -133 l17 -40
-38 -54 c-84 -118 -159 -301 -182 -442 -6 -39 -12 -72 -14 -74 -4 -6 -61 27
-94 54 -42 36 -75 90 -93 150 -8 27 -16 49 -18 48 -2 -1 -44 -5 -94 -9 -49 -4
-93 -9 -97 -11 -12 -8 23 -128 56 -191 l34 -64 -23 -42 c-36 -66 -49 -148 -35
-221 14 -70 35 -116 53 -115 26 1 162 96 158 110 -9 29 -11 104 -3 116 6 10
24 6 78 -14 78 -31 84 -36 84 -79 0 -51 46 -216 83 -303 45 -104 128 -230 205
-312 60 -65 61 -66 51 -103 -13 -46 -64 -105 -106 -122 -18 -8 -52 -14 -76
-14 l-45 0 -21 -85 c-31 -123 -35 -115 67 -115 48 1 104 7 125 14 35 13 38 12
52 -7 23 -33 19 -91 -9 -123 l-23 -28 51 -83 c28 -45 54 -83 59 -83 18 0 94
89 116 135 45 93 27 247 -35 316 -14 16 -13 21 7 56 l22 39 96 -47 c178 -88
363 -127 556 -115 61 3 124 9 140 11 27 5 33 1 57 -37 15 -24 34 -53 43 -64
15 -20 14 -24 -10 -53 -17 -19 -44 -36 -73 -44 l-47 -14 -3 -103 -3 -102 48 6
c98 14 209 83 263 164 14 21 18 22 75 11 80 -15 215 2 248 31 4 3 -9 45 -29
93 l-37 86 -78 -6 c-71 -5 -83 -4 -134 21 -48 24 -96 70 -84 80 2 2 38 20 79
41 206 103 379 275 489 485 29 55 55 100 57 100 3 0 22 -11 42 -25 20 -14 42
-25 48 -25 6 0 18 -14 25 -32 7 -18 41 -60 75 -95 73 -75 167 -122 256 -131
l58 -5 0 100 0 101 -37 7 c-41 7 -89 29 -115 53 -16 14 -14 17 26 43 35 24
126 133 126 152 0 7 -160 120 -164 116 -84 -119 -84 -119 -149 -119 -36 0 -46
6 -81 44 l-41 44 -1 169 c-1 178 -11 246 -59 389 -14 41 -25 78 -25 83 0 4 11
13 24 19 39 18 102 79 136 133 31 48 33 49 81 49 80 0 129 -30 174 -104 9 -15
18 -14 103 15 105 35 105 34 50 122 -58 92 -173 162 -285 173 l-61 7 -5 38
c-5 39 -44 130 -69 163 -14 17 -18 16 -89 -29 -41 -27 -78 -51 -82 -55 -4 -4
4 -31 18 -61 30 -64 32 -128 6 -184 -18 -40 -86 -109 -101 -103 -4 2 -35 38
-70 81 -168 210 -419 354 -695 400 l-80 13 -7 45 c-4 24 -15 64 -24 88 l-17
45 51 47 c56 52 135 87 217 98 l50 6 0 100 0 100 -30 2 c-16 1 -57 -4 -90 -12z
m-89 -736 c428 -75 742 -431 761 -861 7 -143 -7 -239 -52 -366 -81 -225 -265
-425 -483 -524 -184 -84 -413 -104 -606 -54 -326 85 -573 325 -667 648 -30
105 -37 315 -14 429 73 365 352 642 726 724 77 16 253 19 335 4z"/>
<path d="M2295 3081 c-100 -27 -188 -99 -232 -190 -22 -46 -27 -70 -27 -136
-1 -68 3 -89 28 -139 37 -75 93 -131 165 -165 77 -36 202 -37 272 -3 71 35
122 84 160 154 31 58 34 70 34 148 0 71 -4 94 -26 141 -53 113 -159 186 -281
194 -34 2 -76 1 -93 -4z m162 -245 c26 -28 33 -44 33 -76 0 -81 -49 -130 -130
-130 -86 0 -146 101 -106 179 10 18 21 29 28 25 7 -4 8 -3 4 4 -12 19 45 43
94 38 35 -3 51 -11 77 -40z"/>
<path d="M2430 2846 c0 -2 8 -10 18 -17 15 -13 16 -12 3 4 -13 16 -21 21 -21
13z"/>
<path d="M2439 2673 l-24 -28 28 24 c25 23 32 31 24 31 -2 0 -14 -12 -28 -27z"/>
<path d="M2270 2686 c0 -2 8 -10 18 -17 15 -13 16 -12 3 4 -13 16 -21 21 -21
13z"/>
<path d="M2888 2428 l-3 -63 -63 -3 -63 -3 3 -102 3 -102 43 -3 c110 -8 208
39 258 124 23 39 29 63 32 131 l5 83 -106 0 -106 0 -3 -62z"/>
<path d="M2322 2147 c-51 -16 -118 -81 -138 -134 -11 -27 -18 -75 -18 -117
l-1 -71 100 0 100 0 3 55 c2 30 8 60 14 67 6 8 33 13 64 13 l54 0 0 100 0 100
-72 -1 c-40 -1 -88 -6 -106 -12z"/>
</g>
</svg>
